<?xml version="1.0" standalone="no"?><!DOCTYPE svg PUBLIC "-//W3C//DTD SVG 1.1//EN" "http://www.w3.org/Graphics/SVG/1.1/DTD/svg11.dtd"><svg t="1693828726905" class="icon" viewBox="0 0 1024 1024" version="1.1" xmlns="http://www.w3.org/2000/svg" p-id="6649" xmlns:xlink="http://www.w3.org/1999/xlink" width="16" height="16"><path d="M713.142857 292.571429a18.285714 18.285714 0 1 1 36.571429 0v548.571428a18.285714 18.285714 0 0 1-28.416 15.213714L512 716.836571l-209.298286 139.52A18.285714 18.285714 0 0 1 274.285714 841.142857V182.857143a18.285714 18.285714 0 0 1 18.285715-18.285714h438.857142a18.285714 18.285714 0 1 1 0 36.571428H310.857143v605.842286l191.012571-127.341714a18.285714 18.285714 0 0 1 20.260572 0l191.012571 127.341714V292.571429zM402.285714 384a18.285714 18.285714 0 1 1 0-36.571429h219.428572a18.285714 18.285714 0 1 1 0 36.571429h-219.428572z m0 73.142857a18.285714 18.285714 0 1 1 0-36.571428h146.285715a18.285714 18.285714 0 1 1 0 36.571428h-146.285715z" fill="#358EFF" p-id="6650"></path></svg>